PathFileType	4	(X/Y/Z)	C:\Users\Basilio\Documents\Thesis Gigler\squatting_fais\c3dfiles\075\SLS_front_pre2\markers_experimental.trc
DataRate	CameraRate	NumFrames	NumMarkers	Units	OrigDataRate	OrigDataStartFrame	OrigNumFrames
200.000000	200.000000	4	61	mm	200.000000	1104	1473
Frame#	Time	FHD			LBHD			C7			T10			CLAV			LSHO			LUUPA			LMUPA			LDUPA			LLEP			LMEP			LRAD			LUL			LRFIN			RSHO			RUPA1			RMUPA			RDUPA			RLEP			RMEP			RRAD			RUL			RUFIN			RASI			USACR			LSACR			RSACR			LTHI1			LTHI2			LTHI3			LTHI4			LLFC			LMFC			LTIB1			LTIB2			LTIB3			LTIB4			LLMAL			LMMAL			LHEE			LMT1			LMT2			LMT5			RTHI			RTHI2			RTHI3			RTHI4			RLFC			RMFC			RTIB1			RTIB2			RTIB3			RTIB4			RLMAL			RMMAL			RHEE			RMT1			RMT2			RMT5			RBHD			LASI			
		X1	Y1	Z1	X2	Y2	Z2	X3	Y3	Z3	X4	Y4	Z4	X5	Y5	Z5	X6	Y6	Z6	X7	Y7	Z7	X8	Y8	Z8	X9	Y9	Z9	X10	Y10	Z10	X11	Y11	Z11	X12	Y12	Z12	X13	Y13	Z13	X14	Y14	Z14	X15	Y15	Z15	X16	Y16	Z16	X17	Y17	Z17	X18	Y18	Z18	X19	Y19	Z19	X20	Y20	Z20	X21	Y21	Z21	X22	Y22	Z22	X23	Y23	Z23	X24	Y24	Z24	X25	Y25	Z25	X26	Y26	Z26	X27	Y27	Z27	X28	Y28	Z28	X29	Y29	Z29	X30	Y30	Z30	X31	Y31	Z31	X32	Y32	Z32	X33	Y33	Z33	X34	Y34	Z34	X35	Y35	Z35	X36	Y36	Z36	X37	Y37	Z37	X38	Y38	Z38	X39	Y39	Z39	X40	Y40	Z40	X41	Y41	Z41	X42	Y42	Z42	X43	Y43	Z43	X44	Y44	Z44	X45	Y45	Z45	X46	Y46	Z46	X47	Y47	Z47	X48	Y48	Z48	X49	Y49	Z49	X50	Y50	Z50	X51	Y51	Z51	X52	Y52	Z52	X53	Y53	Z53	X54	Y54	Z54	X55	Y55	Z55	X56	Y56	Z56	X57	Y57	Z57	X58	Y58	Z58	X59	Y59	Z59	X60	Y60	Z60	X61	Y61	Z61	

1105	5.52	-317.6550903320313	1732.1533203125	-762.0961303710939	-452.277801513672	1603.910034179688	-833.9309082031252	-468.1559448242189	1498.572143554688	-776.6173095703127	-522.0697021484376	1181.483032226563	-774.9829101562502	-324.5144958496094	1437.667724609375	-773.1563720703127	-353.8828735351563	1497.51904296875	-899.9915161132815	-193.3809661865235	1471.437255859375	-992.5059814453127	-172.2581939697266	1486.33154296875	-950.260437011719	-124.3236465454102	1474.251220703125	-985.8576660156252	-43.1447982788086	1474.2255859375	-971.3385009765627	-47.62916564941407	1395.567138671875	-939.7515258789065	nan	nan	nan	194.3650817871094	1517.503540039063	-876.1018066406252	202.8715362548829	1528.63623046875	-772.9619750976565	-360.3554382324219	1479.024169921875	-640.9439697265626	-210.7139129638672	1443.20849609375	-538.6926879882814	-182.8990173339844	1462.797119140625	-574.1809082031251	-140.2996978759766	1445.033935546875	-534.3219604492189	-70.07427978515626	1450.802734375	-543.2222900390626	-52.95729827880861	1378.545776367188	-564.1998291015626	136.4480133056641	1505.5546875	-722.7638549804689	153.2881927490235	1524.1376953125	-650.3656005859376	203.3330383300782	1553.540161132813	-750.6201782226564	-373.6823730468751	988.6983032226565	-672.0907592773439	-533.7108154296876	1070.024536132813	-783.594177246094	-544.5549316406251	1041.803588867188	-813.0650634765627	-538.1125488281251	1036.582153320313	-756.8147583007814	-317.5631408691407	855.4941406250002	-1031.058349609375	-238.5041656494141	828.3183593750002	-1040.163818359375	-210.634506225586	860.7585449218752	-1015.058349609375	-217.2179107666016	772.4549560546877	-1044.0625	-151.4950561523438	687.8411254882814	-1046.229248046875	-102.7514419555664	689.1834106445314	-926.1558227539065	-42.88727951049805	603.5001831054689	-1025.9384765625	-86.21440887451173	545.4408569335939	-1074.176147460938	-44.82680892944337	554.7002563476564	-1057.33935546875	-15.56875133514405	478.2387084960939	-1031.531494140625	-31.45671463012696	317.7514038085938	-1056.588012695313	-6.069460391998293	341.7034912109376	-974.616882324219	-77.67905426025392	278.2072448730469	-1011.116882324219	129.8679504394532	296.3518676757813	-977.7822265625002	135.3897857666016	293.7119140625001	-1027.197143554688	101.1300811767578	260.2715148925782	-1073.533813476563	-431.9327697753907	778.0215454101565	-626.9208984375001	-388.7655639648439	728.4979858398439	-631.5405273437501	-357.5151062011719	737.6257324218751	-640.5698852539064	-409.6788940429689	647.3234252929689	-651.2577514648439	-412.2556762695314	497.0602416992189	-697.8059692382814	-365.6951904296876	505.2019348144532	-818.1775512695315	-337.5965270996094	364.1343688964844	-767.2641601562501	-384.4558410644532	276.9435424804688	-722.2352905273439	-343.4377441406251	278.8940429687501	-749.0057983398439	-345.7178039550782	236.3732604980469	-790.2211914062502	-399.9321899414064	106.5271072387696	-770.4785766601565	-368.2485961914063	138.2229919433594	-846.5875244140627	-448.4587402343751	89.94798278808595	-834.8717041015627	-243.6176910400391	57.63376617431642	-822.569274902344	-248.2447967529297	56.70415496826173	-780.5327758789065	-290.1334228515626	33.47891998291016	-733.5861206054689	-419.3038940429689	1642.403198242188	-679.2818603515626	-386.4439697265626	1022.361572265625	-920.805358886719	
1106	5.525	-317.5646667480469	1732.047241210938	-762.2052001953126	-451.9637756347657	1603.7255859375	-834.1284790039065	-468.0534667968751	1498.515869140625	-776.7304687500002	-521.6657714843751	1181.24169921875	-775.1112060546877	-324.3944091796876	1437.618286132813	-773.285095214844	-353.8279724121094	1497.323120117188	-900.1929931640627	-193.3667755126954	1471.1181640625	-992.651306152344	-172.1771545410157	1486.127563476563	-950.5276489257815	-124.2612838745117	1474.128662109375	-986.1391601562502	-43.01546859741212	1474.131591796875	-971.559997558594	-47.47653961181641	1395.454956054688	-939.8217773437502	nan	nan	nan	194.354476928711	1517.556030273438	-876.2004394531252	202.8815307617188	1528.654663085938	-773.0268554687502	-360.3240356445313	1478.929809570313	-641.0397338867189	-210.7647857666016	1443.038452148438	-538.7128295898439	-182.9027862548828	1462.706298828125	-574.1670532226564	-140.2852478027344	1444.907836914063	-534.2707519531251	-70.07698822021486	1450.728515625	-543.1769409179689	-52.83663177490236	1378.513671875	-564.1384887695314	136.4243316650391	1505.59033203125	-722.7866210937501	153.3226165771485	1524.045043945313	-650.3760375976564	203.3829345703126	1553.627563476563	-750.6058349609376	-373.1756896972657	988.629577636719	-672.2241210937501	-533.3063964843751	1069.894165039063	-783.742614746094	-544.0156860351564	1041.739624023438	-813.3193969726565	-537.6329956054689	1036.484985351563	-757.0086669921876	-317.3159179687501	855.375915527344	-1031.276245117188	-238.1396636962891	827.8754882812502	-1040.2978515625	-210.1348266601563	860.3449707031252	-1015.191467285156	-216.684066772461	772.1043701171877	-1044.281860351563	-151.2415161132813	687.3547973632814	-1046.469604492188	-102.4841003417969	688.6367797851564	-926.421569824219	-42.91611480712891	603.0321655273439	-1026.376220703125	-86.12942504882814	545.0802612304689	-1074.540771484375	-44.6555519104004	554.2790527343751	-1057.67236328125	-15.55580234527588	477.7712402343751	-1031.829956054688	-31.49173736572266	317.2939453125001	-1057.008422851563	-5.931903839111329	341.2446289062501	-974.9800415039065	-77.67772674560548	277.6138305664063	-1011.435363769531	129.8355865478516	295.9386596679688	-978.270446777344	135.3564758300782	293.4621276855469	-1027.788330078125	101.4076766967774	260.4352416992188	-1074.600341796875	-431.4253540039064	778.0877685546877	-627.0550537109376	-388.3806457519532	728.4986572265626	-631.6383666992189	-357.0953369140626	737.5539550781251	-640.6240844726564	-409.3222045898439	647.2977294921876	-651.3482666015626	-411.8790893554689	497.0787658691407	-697.8330078125001	-365.3806762695313	505.1144409179689	-818.2775878906252	-337.6300048828126	364.0747985839844	-767.4956054687501	-384.2349243164064	276.9064636230469	-722.2858276367189	-343.4610595703126	278.8621826171876	-749.2099609375001	-345.6111755371094	236.3250122070313	-790.4036254882815	-399.9084777832032	106.569938659668	-770.518005371094	-368.2393798828126	138.1920928955078	-846.6770629882815	-448.4483947753907	89.92330932617189	-834.875183105469	-243.5774688720704	57.57625198364259	-822.5856933593752	-248.6578979492188	56.62779998779298	-781.0015258789065	-290.1221008300782	33.46707916259766	-733.5687866210939	-419.474578857422	1642.343872070313	-679.3250732421876	-385.938446044922	1022.20654296875	-921.144470214844	
1107	5.53	-317.5556335449219	1732.108154296875	-762.2841186523439	-451.7316894531251	1603.628662109375	-834.4719238281252	-467.9599914550782	1498.328125	-776.8706054687502	-521.1887207031251	1181.0439453125	-775.2766113281252	-324.2217102050782	1437.536987304688	-773.387634277344	-353.6254577636719	1497.112915039063	-900.412536621094	-193.2835845947266	1470.780517578125	-992.8319091796877	-172.0824890136719	1485.90234375	-950.7568359375002	-124.1278457641602	1473.80615234375	-986.3408203125002	-42.74069595336915	1473.902709960938	-971.601745605469	-47.26653671264649	1395.24951171875	-939.845642089844	nan	nan	nan	194.6684722900391	1517.485961914063	-876.3208618164065	203.0421905517579	1528.696899414063	-773.0495605468752	-360.2896423339844	1478.794311523438	-641.1233520507814	-210.7369537353516	1442.854125976563	-538.7291870117189	-182.8692779541016	1462.59814453125	-574.1513671875001	-140.2694396972657	1444.785278320313	-534.2663574218751	-70.03021240234376	1450.638793945313	-543.1140136718751	-52.839412689209	1378.385986328125	-564.1043701171876	136.4457092285157	1505.535400390625	-722.7812500000001	153.3177032470703	1524.068969726563	-650.3699340820314	203.2870178222657	1553.588745117188	-750.6211547851564	-372.6693115234376	988.6333618164065	-672.2799682617189	-532.8386230468751	1069.775024414063	-783.9236450195315	-543.5466918945314	1041.649047851563	-813.5535888671877	-537.2055053710939	1036.384399414063	-757.2529907226564	-316.6921386718751	855.1195068359377	-1031.424194335938	-237.7852630615235	827.5545654296877	-1040.6005859375	-209.6041717529297	859.901306152344	-1015.347106933594	-215.6782531738282	771.6569824218752	-1044.308837890625	-150.9865417480469	686.9302978515626	-1046.68310546875	-102.2352066040039	688.0870361328126	-926.5857543945315	-42.68885803222657	602.5125732421876	-1026.609741210938	-86.00774383544923	544.6671752929689	-1074.86279296875	-44.43516921997071	553.9064331054689	-1058.086059570313	-15.5019760131836	477.2680664062501	-1032.156616210938	-31.65221595764161	316.6011657714844	-1057.353393554688	-6.003969669342043	340.6861877441407	-975.3439941406252	-77.72048187255861	277.0336608886719	-1011.716979980469	129.7996978759766	295.4841613769532	-978.8469238281252	135.3670654296875	293.1432800292969	-1028.251586914063	101.3294372558594	260.0721435546876	-1075.098266601563	-430.9659423828126	778.1372680664065	-627.1448364257814	-387.9967041015626	728.4807739257814	-631.8079833984376	-356.6150817871094	737.5949096679689	-640.6986083984376	-408.8659973144532	647.2974853515626	-651.4189453125001	-411.3925781250001	497.1322631835939	-697.8807373046876	-364.8860778808594	505.0663146972657	-818.1783447265627	-337.3284606933594	363.9670410156251	-767.6077880859376	-383.9697875976563	276.8625488281251	-722.2789306640626	-343.2748413085938	278.8099975585938	-749.3529663085939	-345.4178771972657	236.2230224609376	-790.4320068359377	-399.8888244628907	106.5644302368164	-770.5927734375002	-368.1926269531251	138.1242065429688	-846.7239379882815	-448.4027099609376	89.83863830566408	-834.9051513671877	-243.5856933593751	57.53431320190431	-822.6272583007815	-248.1325683593751	56.68270492553712	-780.5112304687502	-290.1285705566407	33.47110748291016	-733.5894775390626	-419.4815979003907	1642.430053710938	-679.4548950195314	-385.2502441406251	1021.9091796875	-921.3037109375002	
1108	5.535	-317.4591674804688	1732.014038085938	-762.4086914062501	-451.5467224121095	1603.287109375	-834.7452392578127	-467.8487854003907	1498.219116210938	-776.9953613281252	-520.8540649414064	1180.874389648438	-775.4801025390627	-324.0257263183594	1437.415161132813	-773.478210449219	-353.3376464843751	1496.908203125	-900.6245117187502	-193.155990600586	1470.466552734375	-993.0756835937502	-171.9942779541016	1485.70166015625	-951.069274902344	-123.8012619018555	1473.452880859375	-986.549743652344	-42.66695022583009	1473.727783203125	-971.7581787109377	-47.14068984985352	1395.008911132813	-939.904479980469	nan	nan	nan	194.581527709961	1517.387817382813	-876.4124755859377	203.0025939941407	1528.634399414063	-773.0657348632815	-360.1782226562501	1478.62353515625	-641.1642456054689	-210.7207641601563	1442.693359375	-538.7039794921876	-182.8081970214844	1462.434936523438	-574.0941162109376	-140.2749633789063	1444.541870117188	-534.2567749023439	-70.03562164306642	1450.4599609375	-543.1407470703126	-52.79913711547853	1378.231811523438	-564.1232910156251	136.566146850586	1505.545043945313	-722.7700805664064	153.3098754882813	1523.961181640625	-650.3806762695314	203.3425598144532	1553.535400390625	-750.6289672851564	-372.1549072265626	988.6225585937502	-672.3756103515626	-532.4059448242189	1069.662109375	-784.145446777344	-543.0056762695314	1041.496215820313	-813.803161621094	-536.6077270507814	1036.260131835938	-757.5319824218751	-316.4906005859376	854.8918457031252	-1031.672119140625	-237.4827423095704	827.2669677734377	-1040.870849609375	-209.2068176269532	859.5238037109377	-1015.49169921875	-215.4531707763672	771.245056152344	-1044.556762695313	-150.6664581298828	686.4934692382814	-1046.918579101563	-101.9580001831055	687.5231933593751	-926.851989746094	-42.62440490722657	601.8702392578126	-1026.866455078125	-85.97130584716798	544.2111816406251	-1075.179931640625	-44.62223052978516	553.2307739257814	-1058.31640625	-15.41295719146729	476.6441955566407	-1032.501586914063	-31.99300384521485	315.7470397949219	-1057.613891601563	-6.107414245605471	339.9696960449219	-975.677429199219	-77.74490356445314	276.4334716796876	-1012.096313476563	129.7771759033203	294.9859008789063	-979.3341064453127	135.2864227294922	292.8022460937501	-1028.707153320313	101.314453125	259.7622985839844	-1075.689086914063	-430.5728149414064	778.1934204101565	-627.2260131835939	-387.5527343750001	728.5487060546876	-631.7990722656251	-356.1460876464844	737.6082153320314	-640.6977539062501	-408.4629211425782	647.2751464843751	-651.4736328125001	-410.8016967773439	497.120086669922	-697.8493041992189	-365.6101989746094	505.1566162109376	-818.8743286132815	-336.9299011230469	363.8695373535157	-767.7356567382814	-383.6182861328126	276.8253479003907	-722.3674926757814	-342.9715576171876	278.7632141113282	-749.4459838867189	-345.3226318359376	236.1543426513672	-790.5650024414065	-399.842498779297	106.5837554931641	-770.6157226562502	-368.1522827148438	138.0448913574219	-846.796569824219	-448.3051757812501	89.8729705810547	-834.9470825195315	-243.5512084960938	57.49830627441408	-822.6297607421877	-248.1092071533204	56.67517471313478	-780.5426025390627	-290.1170959472657	33.48320007324219	-733.6135864257814	-419.474334716797	1642.396606445313	-679.7031860351564	-384.789276123047	1021.842834472656	-921.5172119140627	
